<svg width="28" height="28" viewBox="0 0 28 28" fill="none" xmlns="http://www.w3.org/2000/svg">
<path d="M27.3327 13.6559C27.3327 20.8302 21.4722 26.6459 14.2417 26.6459C11.9463 26.6459 9.78987 26.0592 7.91372 25.0296L0.666016 27.3327L3.02898 20.3632C1.83698 18.4059 1.15046 16.1102 1.15046 13.6559C1.15046 6.48172 7.0115 0.666016 14.2417 0.666016C21.4728 0.666016 27.3327 6.48172 27.3327 13.6559ZM14.2417 2.73476C8.17239 2.73476 3.2355 7.63402 3.2355 13.6559C3.2355 16.0456 4.01446 18.2586 5.33209 20.0589L3.95698 24.1149L8.18661 22.7706C9.92439 23.9116 12.0062 24.5771 14.242 24.5771C20.3105 24.5771 25.2482 19.6785 25.2482 13.6565C25.2482 7.63461 20.3108 2.73476 14.2417 2.73476ZM20.8524 16.6476C20.7715 16.5152 20.5579 16.4352 20.2373 16.2761C19.9161 16.117 18.338 15.3463 18.0447 15.2405C17.7505 15.1345 17.5359 15.0811 17.3223 15.3996C17.1087 15.7185 16.4936 16.4352 16.306 16.6476C16.1188 16.8607 15.9318 16.8873 15.6106 16.7279C15.29 16.5688 14.2562 16.2322 13.0305 15.1478C12.0767 14.3039 11.4325 13.2622 11.2453 12.9431C11.0583 12.6245 11.2257 12.4524 11.386 12.2939C11.5306 12.1511 11.7072 11.922 11.8675 11.7362C12.0284 11.5502 12.0817 11.4177 12.1881 11.205C12.2956 10.9925 12.242 10.8068 12.1614 10.6471C12.0814 10.4879 11.4391 8.92113 11.1718 8.2835C10.9045 7.64646 10.6376 7.75253 10.45 7.75253C10.2631 7.75253 10.0488 7.72587 9.8349 7.72587C9.62098 7.72587 9.27313 7.80557 8.9789 8.12409C8.68498 8.4429 7.85624 9.21327 7.85624 10.7798C7.85624 12.3466 9.00557 13.8604 9.16646 14.0725C9.32676 14.2847 11.3857 17.6044 14.6479 18.8793C17.9105 20.1537 17.9105 19.7285 18.4989 19.6752C19.0868 19.6222 20.397 18.9051 20.6654 18.162C20.9321 17.4177 20.9321 16.7804 20.8524 16.6476Z" fill="#787A80"/>
</svg>
